<?xml version="1.0" encoding="UTF-8"?>
<svg xmlns="http://www.w3.org/2000/svg" xmlns:xlink="http://www.w3.org/1999/xlink" width="504pt" height="504pt" viewBox="0 0 504 504" version="1.1">
<g id="surface79">
<rect x="0" y="0" width="504" height="504" style="fill:rgb(100%,100%,100%);fill-opacity:1;stroke:none;"/>
<path style="fill:none;stroke-width:2.25;stroke-linecap:round;stroke-linejoin:round;stroke:rgb(0%,61.960784%,45.098039%);stroke-opacity:1;stroke-miterlimit:10;" d="M 74.398438 361.015625 L 91.09375 370.3125 L 107.792969 388.90625 L 124.488281 398.207031 L 141.183594 416.800781 L 157.878906 413.699219 L 174.574219 410.601562 L 191.269531 398.207031 L 207.964844 385.808594 L 224.660156 342.421875 L 241.355469 271.140625 L 258.050781 209.160156 L 274.746094 156.476562 L 291.445312 134.78125 L 308.140625 103.789062 L 324.835938 72.800781 L 341.53125 94.492188 L 358.226562 128.582031 L 374.921875 165.773438 L 391.617188 184.367188 L 408.3125 221.558594 L 425.007812 268.042969 L 441.703125 311.429688 L 458.398438 330.023438 "/>
<path style="fill-rule:nonzero;fill:rgb(0%,0%,0%);fill-opacity:1;stroke-width:0.75;stroke-linecap:round;stroke-linejoin:round;stroke:rgb(0%,0%,0%);stroke-opacity:1;stroke-miterlimit:10;" d="M 76.199219 361.015625 C 76.199219 363.417969 72.601562 363.417969 72.601562 361.015625 C 72.601562 358.617188 76.199219 358.617188 76.199219 361.015625 "/>
<path style="fill-rule:nonzero;fill:rgb(0%,0%,0%);fill-opacity:1;stroke-width:0.75;stroke-linecap:round;stroke-linejoin:round;stroke:rgb(0%,0%,0%);stroke-opacity:1;stroke-miterlimit:10;" d="M 92.894531 370.3125 C 92.894531 372.714844 89.296875 372.714844 89.296875 370.3125 C 89.296875 367.914062 92.894531 367.914062 92.894531 370.3125 "/>
<path style="fill-rule:nonzero;fill:rgb(0%,0%,0%);fill-opacity:1;stroke-width:0.75;stroke-linecap:round;stroke-linejoin:round;stroke:rgb(0%,0%,0%);stroke-opacity:1;stroke-miterlimit:10;" d="M 109.589844 388.90625 C 109.589844 391.308594 105.992188 391.308594 105.992188 388.90625 C 105.992188 386.507812 109.589844 386.507812 109.589844 388.90625 "/>
<path style="fill-rule:nonzero;fill:rgb(0%,0%,0%);fill-opacity:1;stroke-width:0.75;stroke-linecap:round;stroke-linejoin:round;stroke:rgb(0%,0%,0%);stroke-opacity:1;stroke-miterlimit:10;" d="M 126.285156 398.207031 C 126.285156 400.605469 122.6875 400.605469 122.6875 398.207031 C 122.6875 395.804688 126.285156 395.804688 126.285156 398.207031 "/>
<path style="fill-rule:nonzero;fill:rgb(0%,0%,0%);fill-opacity:1;stroke-width:0.75;stroke-linecap:round;stroke-linejoin:round;stroke:rgb(0%,0%,0%);stroke-opacity:1;stroke-miterlimit:10;" d="M 142.984375 416.800781 C 142.984375 419.199219 139.382812 419.199219 139.382812 416.800781 C 139.382812 414.398438 142.984375 414.398438 142.984375 416.800781 "/>
<path style="fill-rule:nonzero;fill:rgb(0%,0%,0%);fill-opacity:1;stroke-width:0.75;stroke-linecap:round;stroke-linejoin:round;stroke:rgb(0%,0%,0%);stroke-opacity:1;stroke-miterlimit:10;" d="M 159.679688 413.699219 C 159.679688 416.101562 156.078125 416.101562 156.078125 413.699219 C 156.078125 411.300781 159.679688 411.300781 159.679688 413.699219 "/>
<path style="fill-rule:nonzero;fill:rgb(0%,0%,0%);fill-opacity:1;stroke-width:0.75;stroke-linecap:round;stroke-linejoin:round;stroke:rgb(0%,0%,0%);stroke-opacity:1;stroke-miterlimit:10;" d="M 176.375 410.601562 C 176.375 413 172.773438 413 172.773438 410.601562 C 172.773438 408.203125 176.375 408.203125 176.375 410.601562 "/>
<path style="fill-rule:nonzero;fill:rgb(0%,0%,0%);fill-opacity:1;stroke-width:0.75;stroke-linecap:round;stroke-linejoin:round;stroke:rgb(0%,0%,0%);stroke-opacity:1;stroke-miterlimit:10;" d="M 193.070312 398.207031 C 193.070312 400.605469 189.46875 400.605469 189.46875 398.207031 C 189.46875 395.804688 193.070312 395.804688 193.070312 398.207031 "/>
<path style="fill-rule:nonzero;fill:rgb(0%,0%,0%);fill-opacity:1;stroke-width:0.75;stroke-linecap:round;stroke-linejoin:round;stroke:rgb(0%,0%,0%);stroke-opacity:1;stroke-miterlimit:10;" d="M 209.765625 385.808594 C 209.765625 388.210938 206.164062 388.210938 206.164062 385.808594 C 206.164062 383.410156 209.765625 383.410156 209.765625 385.808594 "/>
<path style="fill-rule:nonzero;fill:rgb(0%,0%,0%);fill-opacity:1;stroke-width:0.75;stroke-linecap:round;stroke-linejoin:round;stroke:rgb(0%,0%,0%);stroke-opacity:1;stroke-miterlimit:10;" d="M 226.460938 342.421875 C 226.460938 344.820312 222.859375 344.820312 222.859375 342.421875 C 222.859375 340.023438 226.460938 340.023438 226.460938 342.421875 "/>
<path style="fill-rule:nonzero;fill:rgb(0%,0%,0%);fill-opacity:1;stroke-width:0.75;stroke-linecap:round;stroke-linejoin:round;stroke:rgb(0%,0%,0%);stroke-opacity:1;stroke-miterlimit:10;" d="M 243.15625 271.140625 C 243.15625 273.542969 239.554688 273.542969 239.554688 271.140625 C 239.554688 268.742188 243.15625 268.742188 243.15625 271.140625 "/>
<path style="fill-rule:nonzero;fill:rgb(0%,0%,0%);fill-opacity:1;stroke-width:0.75;stroke-linecap:round;stroke-linejoin:round;stroke:rgb(0%,0%,0%);stroke-opacity:1;stroke-miterlimit:10;" d="M 259.851562 209.160156 C 259.851562 211.558594 256.253906 211.558594 256.253906 209.160156 C 256.253906 206.761719 259.851562 206.761719 259.851562 209.160156 "/>
<path style="fill-rule:nonzero;fill:rgb(0%,0%,0%);fill-opacity:1;stroke-width:0.75;stroke-linecap:round;stroke-linejoin:round;stroke:rgb(0%,0%,0%);stroke-opacity:1;stroke-miterlimit:10;" d="M 276.546875 156.476562 C 276.546875 158.875 272.949219 158.875 272.949219 156.476562 C 272.949219 154.074219 276.546875 154.074219 276.546875 156.476562 "/>
<path style="fill-rule:nonzero;fill:rgb(0%,0%,0%);fill-opacity:1;stroke-width:0.75;stroke-linecap:round;stroke-linejoin:round;stroke:rgb(0%,0%,0%);stroke-opacity:1;stroke-miterlimit:10;" d="M 293.242188 134.78125 C 293.242188 137.183594 289.644531 137.183594 289.644531 134.78125 C 289.644531 132.382812 293.242188 132.382812 293.242188 134.78125 "/>
<path style="fill-rule:nonzero;fill:rgb(0%,0%,0%);fill-opacity:1;stroke-width:0.75;stroke-linecap:round;stroke-linejoin:round;stroke:rgb(0%,0%,0%);stroke-opacity:1;stroke-miterlimit:10;" d="M 309.9375 103.789062 C 309.9375 106.191406 306.339844 106.191406 306.339844 103.789062 C 306.339844 101.390625 309.9375 101.390625 309.9375 103.789062 "/>
<path style="fill-rule:nonzero;fill:rgb(0%,0%,0%);fill-opacity:1;stroke-width:0.75;stroke-linecap:round;stroke-linejoin:round;stroke:rgb(0%,0%,0%);stroke-opacity:1;stroke-miterlimit:10;" d="M 326.636719 72.800781 C 326.636719 75.199219 323.035156 75.199219 323.035156 72.800781 C 323.035156 70.398438 326.636719 70.398438 326.636719 72.800781 "/>
<path style="fill-rule:nonzero;fill:rgb(0%,0%,0%);fill-opacity:1;stroke-width:0.75;stroke-linecap:round;stroke-linejoin:round;stroke:rgb(0%,0%,0%);stroke-opacity:1;stroke-miterlimit:10;" d="M 343.332031 94.492188 C 343.332031 96.894531 339.730469 96.894531 339.730469 94.492188 C 339.730469 92.09375 343.332031 92.09375 343.332031 94.492188 "/>
<path style="fill-rule:nonzero;fill:rgb(0%,0%,0%);fill-opacity:1;stroke-width:0.75;stroke-linecap:round;stroke-linejoin:round;stroke:rgb(0%,0%,0%);stroke-opacity:1;stroke-miterlimit:10;" d="M 360.027344 128.582031 C 360.027344 130.984375 356.425781 130.984375 356.425781 128.582031 C 356.425781 126.183594 360.027344 126.183594 360.027344 128.582031 "/>
<path style="fill-rule:nonzero;fill:rgb(0%,0%,0%);fill-opacity:1;stroke-width:0.75;stroke-linecap:round;stroke-linejoin:round;stroke:rgb(0%,0%,0%);stroke-opacity:1;stroke-miterlimit:10;" d="M 376.722656 165.773438 C 376.722656 168.171875 373.121094 168.171875 373.121094 165.773438 C 373.121094 163.371094 376.722656 163.371094 376.722656 165.773438 "/>
<path style="fill-rule:nonzero;fill:rgb(0%,0%,0%);fill-opacity:1;stroke-width:0.75;stroke-linecap:round;stroke-linejoin:round;stroke:rgb(0%,0%,0%);stroke-opacity:1;stroke-miterlimit:10;" d="M 393.417969 184.367188 C 393.417969 186.765625 389.816406 186.765625 389.816406 184.367188 C 389.816406 181.96875 393.417969 181.96875 393.417969 184.367188 "/>
<path style="fill-rule:nonzero;fill:rgb(0%,0%,0%);fill-opacity:1;stroke-width:0.75;stroke-linecap:round;stroke-linejoin:round;stroke:rgb(0%,0%,0%);stroke-opacity:1;stroke-miterlimit:10;" d="M 410.113281 221.558594 C 410.113281 223.957031 406.511719 223.957031 406.511719 221.558594 C 406.511719 219.15625 410.113281 219.15625 410.113281 221.558594 "/>
<path style="fill-rule:nonzero;fill:rgb(0%,0%,0%);fill-opacity:1;stroke-width:0.75;stroke-linecap:round;stroke-linejoin:round;stroke:rgb(0%,0%,0%);stroke-opacity:1;stroke-miterlimit:10;" d="M 426.808594 268.042969 C 426.808594 270.441406 423.207031 270.441406 423.207031 268.042969 C 423.207031 265.644531 426.808594 265.644531 426.808594 268.042969 "/>
<path style="fill-rule:nonzero;fill:rgb(0%,0%,0%);fill-opacity:1;stroke-width:0.75;stroke-linecap:round;stroke-linejoin:round;stroke:rgb(0%,0%,0%);stroke-opacity:1;stroke-miterlimit:10;" d="M 443.503906 311.429688 C 443.503906 313.832031 439.90625 313.832031 439.90625 311.429688 C 439.90625 309.03125 443.503906 309.03125 443.503906 311.429688 "/>
<path style="fill-rule:nonzero;fill:rgb(0%,0%,0%);fill-opacity:1;stroke-width:0.75;stroke-linecap:round;stroke-linejoin:round;stroke:rgb(0%,0%,0%);stroke-opacity:1;stroke-miterlimit:10;" d="M 460.199219 330.023438 C 460.199219 332.425781 456.601562 332.425781 456.601562 330.023438 C 456.601562 327.625 460.199219 327.625 460.199219 330.023438 "/>
</g>
</svg>
