<?xml version="1.0" encoding="UTF-8"?>
<svg xmlns="http://www.w3.org/2000/svg" xmlns:xlink="http://www.w3.org/1999/xlink" width="504pt" height="504pt" viewBox="0 0 504 504" version="1.1">
<g id="surface69">
<rect x="0" y="0" width="504" height="504" style="fill:rgb(100%,100%,100%);fill-opacity:1;stroke:none;"/>
<path style="fill:none;stroke-width:2.25;stroke-linecap:round;stroke-linejoin:round;stroke:rgb(0%,61.960784%,45.098039%);stroke-opacity:1;stroke-miterlimit:10;" d="M 74.398438 350.734375 L 91.09375 366.679688 L 107.792969 378.070312 L 124.488281 382.628906 L 141.183594 391.742188 L 157.878906 396.296875 L 174.574219 407.6875 L 191.269531 416.800781 L 207.964844 405.410156 L 224.660156 378.070312 L 258.050781 241.382812 L 274.746094 200.375 L 291.445312 152.535156 L 308.140625 118.363281 L 324.835938 88.746094 L 341.53125 72.800781 L 358.226562 113.804688 L 374.921875 154.8125 L 391.617188 218.601562 L 408.3125 277.832031 L 425.007812 307.449219 L 441.703125 321.117188 L 458.398438 330.230469 "/>
<path style="fill-rule:nonzero;fill:rgb(0%,0%,0%);fill-opacity:1;stroke-width:0.75;stroke-linecap:round;stroke-linejoin:round;stroke:rgb(0%,0%,0%);stroke-opacity:1;stroke-miterlimit:10;" d="M 76.199219 350.734375 C 76.199219 353.132812 72.601562 353.132812 72.601562 350.734375 C 72.601562 348.332031 76.199219 348.332031 76.199219 350.734375 "/>
<path style="fill-rule:nonzero;fill:rgb(0%,0%,0%);fill-opacity:1;stroke-width:0.75;stroke-linecap:round;stroke-linejoin:round;stroke:rgb(0%,0%,0%);stroke-opacity:1;stroke-miterlimit:10;" d="M 92.894531 366.679688 C 92.894531 369.082031 89.296875 369.082031 89.296875 366.679688 C 89.296875 364.28125 92.894531 364.28125 92.894531 366.679688 "/>
<path style="fill-rule:nonzero;fill:rgb(0%,0%,0%);fill-opacity:1;stroke-width:0.75;stroke-linecap:round;stroke-linejoin:round;stroke:rgb(0%,0%,0%);stroke-opacity:1;stroke-miterlimit:10;" d="M 109.589844 378.070312 C 109.589844 380.472656 105.992188 380.472656 105.992188 378.070312 C 105.992188 375.671875 109.589844 375.671875 109.589844 378.070312 "/>
<path style="fill-rule:nonzero;fill:rgb(0%,0%,0%);fill-opacity:1;stroke-width:0.75;stroke-linecap:round;stroke-linejoin:round;stroke:rgb(0%,0%,0%);stroke-opacity:1;stroke-miterlimit:10;" d="M 126.285156 382.628906 C 126.285156 385.027344 122.6875 385.027344 122.6875 382.628906 C 122.6875 380.226562 126.285156 380.226562 126.285156 382.628906 "/>
<path style="fill-rule:nonzero;fill:rgb(0%,0%,0%);fill-opacity:1;stroke-width:0.75;stroke-linecap:round;stroke-linejoin:round;stroke:rgb(0%,0%,0%);stroke-opacity:1;stroke-miterlimit:10;" d="M 142.984375 391.742188 C 142.984375 394.140625 139.382812 394.140625 139.382812 391.742188 C 139.382812 389.339844 142.984375 389.339844 142.984375 391.742188 "/>
<path style="fill-rule:nonzero;fill:rgb(0%,0%,0%);fill-opacity:1;stroke-width:0.75;stroke-linecap:round;stroke-linejoin:round;stroke:rgb(0%,0%,0%);stroke-opacity:1;stroke-miterlimit:10;" d="M 159.679688 396.296875 C 159.679688 398.695312 156.078125 398.695312 156.078125 396.296875 C 156.078125 393.898438 159.679688 393.898438 159.679688 396.296875 "/>
<path style="fill-rule:nonzero;fill:rgb(0%,0%,0%);fill-opacity:1;stroke-width:0.75;stroke-linecap:round;stroke-linejoin:round;stroke:rgb(0%,0%,0%);stroke-opacity:1;stroke-miterlimit:10;" d="M 176.375 407.6875 C 176.375 410.085938 172.773438 410.085938 172.773438 407.6875 C 172.773438 405.289062 176.375 405.289062 176.375 407.6875 "/>
<path style="fill-rule:nonzero;fill:rgb(0%,0%,0%);fill-opacity:1;stroke-width:0.75;stroke-linecap:round;stroke-linejoin:round;stroke:rgb(0%,0%,0%);stroke-opacity:1;stroke-miterlimit:10;" d="M 193.070312 416.800781 C 193.070312 419.199219 189.46875 419.199219 189.46875 416.800781 C 189.46875 414.398438 193.070312 414.398438 193.070312 416.800781 "/>
<path style="fill-rule:nonzero;fill:rgb(0%,0%,0%);fill-opacity:1;stroke-width:0.75;stroke-linecap:round;stroke-linejoin:round;stroke:rgb(0%,0%,0%);stroke-opacity:1;stroke-miterlimit:10;" d="M 209.765625 405.410156 C 209.765625 407.808594 206.164062 407.808594 206.164062 405.410156 C 206.164062 403.007812 209.765625 403.007812 209.765625 405.410156 "/>
<path style="fill-rule:nonzero;fill:rgb(0%,0%,0%);fill-opacity:1;stroke-width:0.75;stroke-linecap:round;stroke-linejoin:round;stroke:rgb(0%,0%,0%);stroke-opacity:1;stroke-miterlimit:10;" d="M 226.460938 378.070312 C 226.460938 380.472656 222.859375 380.472656 222.859375 378.070312 C 222.859375 375.671875 226.460938 375.671875 226.460938 378.070312 "/>
<path style="fill-rule:nonzero;fill:rgb(0%,0%,0%);fill-opacity:1;stroke-width:0.75;stroke-linecap:round;stroke-linejoin:round;stroke:rgb(0%,0%,0%);stroke-opacity:1;stroke-miterlimit:10;" d="M 243.15625 309.726562 C 243.15625 312.128906 239.554688 312.128906 239.554688 309.726562 C 239.554688 307.328125 243.15625 307.328125 243.15625 309.726562 "/>
<path style="fill-rule:nonzero;fill:rgb(0%,0%,0%);fill-opacity:1;stroke-width:0.75;stroke-linecap:round;stroke-linejoin:round;stroke:rgb(0%,0%,0%);stroke-opacity:1;stroke-miterlimit:10;" d="M 259.851562 241.382812 C 259.851562 243.78125 256.253906 243.78125 256.253906 241.382812 C 256.253906 238.984375 259.851562 238.984375 259.851562 241.382812 "/>
<path style="fill-rule:nonzero;fill:rgb(0%,0%,0%);fill-opacity:1;stroke-width:0.75;stroke-linecap:round;stroke-linejoin:round;stroke:rgb(0%,0%,0%);stroke-opacity:1;stroke-miterlimit:10;" d="M 276.546875 200.375 C 276.546875 202.777344 272.949219 202.777344 272.949219 200.375 C 272.949219 197.976562 276.546875 197.976562 276.546875 200.375 "/>
<path style="fill-rule:nonzero;fill:rgb(0%,0%,0%);fill-opacity:1;stroke-width:0.75;stroke-linecap:round;stroke-linejoin:round;stroke:rgb(0%,0%,0%);stroke-opacity:1;stroke-miterlimit:10;" d="M 293.242188 152.535156 C 293.242188 154.933594 289.644531 154.933594 289.644531 152.535156 C 289.644531 150.136719 293.242188 150.136719 293.242188 152.535156 "/>
<path style="fill-rule:nonzero;fill:rgb(0%,0%,0%);fill-opacity:1;stroke-width:0.75;stroke-linecap:round;stroke-linejoin:round;stroke:rgb(0%,0%,0%);stroke-opacity:1;stroke-miterlimit:10;" d="M 309.9375 118.363281 C 309.9375 120.761719 306.339844 120.761719 306.339844 118.363281 C 306.339844 115.964844 309.9375 115.964844 309.9375 118.363281 "/>
<path style="fill-rule:nonzero;fill:rgb(0%,0%,0%);fill-opacity:1;stroke-width:0.75;stroke-linecap:round;stroke-linejoin:round;stroke:rgb(0%,0%,0%);stroke-opacity:1;stroke-miterlimit:10;" d="M 326.636719 88.746094 C 326.636719 91.148438 323.035156 91.148438 323.035156 88.746094 C 323.035156 86.347656 326.636719 86.347656 326.636719 88.746094 "/>
<path style="fill-rule:nonzero;fill:rgb(0%,0%,0%);fill-opacity:1;stroke-width:0.75;stroke-linecap:round;stroke-linejoin:round;stroke:rgb(0%,0%,0%);stroke-opacity:1;stroke-miterlimit:10;" d="M 343.332031 72.800781 C 343.332031 75.199219 339.730469 75.199219 339.730469 72.800781 C 339.730469 70.398438 343.332031 70.398438 343.332031 72.800781 "/>
<path style="fill-rule:nonzero;fill:rgb(0%,0%,0%);fill-opacity:1;stroke-width:0.75;stroke-linecap:round;stroke-linejoin:round;stroke:rgb(0%,0%,0%);stroke-opacity:1;stroke-miterlimit:10;" d="M 360.027344 113.804688 C 360.027344 116.207031 356.425781 116.207031 356.425781 113.804688 C 356.425781 111.40625 360.027344 111.40625 360.027344 113.804688 "/>
<path style="fill-rule:nonzero;fill:rgb(0%,0%,0%);fill-opacity:1;stroke-width:0.75;stroke-linecap:round;stroke-linejoin:round;stroke:rgb(0%,0%,0%);stroke-opacity:1;stroke-miterlimit:10;" d="M 376.722656 154.8125 C 376.722656 157.214844 373.121094 157.214844 373.121094 154.8125 C 373.121094 152.414062 376.722656 152.414062 376.722656 154.8125 "/>
<path style="fill-rule:nonzero;fill:rgb(0%,0%,0%);fill-opacity:1;stroke-width:0.75;stroke-linecap:round;stroke-linejoin:round;stroke:rgb(0%,0%,0%);stroke-opacity:1;stroke-miterlimit:10;" d="M 393.417969 218.601562 C 393.417969 221 389.816406 221 389.816406 218.601562 C 389.816406 216.203125 393.417969 216.203125 393.417969 218.601562 "/>
<path style="fill-rule:nonzero;fill:rgb(0%,0%,0%);fill-opacity:1;stroke-width:0.75;stroke-linecap:round;stroke-linejoin:round;stroke:rgb(0%,0%,0%);stroke-opacity:1;stroke-miterlimit:10;" d="M 410.113281 277.832031 C 410.113281 280.234375 406.511719 280.234375 406.511719 277.832031 C 406.511719 275.433594 410.113281 275.433594 410.113281 277.832031 "/>
<path style="fill-rule:nonzero;fill:rgb(0%,0%,0%);fill-opacity:1;stroke-width:0.75;stroke-linecap:round;stroke-linejoin:round;stroke:rgb(0%,0%,0%);stroke-opacity:1;stroke-miterlimit:10;" d="M 426.808594 307.449219 C 426.808594 309.847656 423.207031 309.847656 423.207031 307.449219 C 423.207031 305.050781 426.808594 305.050781 426.808594 307.449219 "/>
<path style="fill-rule:nonzero;fill:rgb(0%,0%,0%);fill-opacity:1;stroke-width:0.75;stroke-linecap:round;stroke-linejoin:round;stroke:rgb(0%,0%,0%);stroke-opacity:1;stroke-miterlimit:10;" d="M 443.503906 321.117188 C 443.503906 323.519531 439.90625 323.519531 439.90625 321.117188 C 439.90625 318.71875 443.503906 318.71875 443.503906 321.117188 "/>
<path style="fill-rule:nonzero;fill:rgb(0%,0%,0%);fill-opacity:1;stroke-width:0.75;stroke-linecap:round;stroke-linejoin:round;stroke:rgb(0%,0%,0%);stroke-opacity:1;stroke-miterlimit:10;" d="M 460.199219 330.230469 C 460.199219 332.628906 456.601562 332.628906 456.601562 330.230469 C 456.601562 327.832031 460.199219 327.832031 460.199219 330.230469 "/>
</g>
</svg>
