<?xml version="1.0" encoding="UTF-8"?>
<svg xmlns="http://www.w3.org/2000/svg" xmlns:xlink="http://www.w3.org/1999/xlink" width="504pt" height="504pt" viewBox="0 0 504 504" version="1.1">
<g id="surface74">
<rect x="0" y="0" width="504" height="504" style="fill:rgb(100%,100%,100%);fill-opacity:1;stroke:none;"/>
<path style="fill:none;stroke-width:2.25;stroke-linecap:round;stroke-linejoin:round;stroke:rgb(0%,61.960784%,45.098039%);stroke-opacity:1;stroke-miterlimit:10;" d="M 74.398438 351.558594 L 91.09375 351.558594 L 107.792969 378.25 L 124.488281 387.144531 L 157.878906 416.800781 L 174.574219 393.074219 L 191.269531 399.007812 L 207.964844 393.074219 L 224.660156 315.972656 L 241.355469 247.765625 L 258.050781 173.628906 L 274.746094 132.109375 L 291.445312 108.386719 L 308.140625 78.730469 L 324.835938 72.800781 L 341.53125 72.800781 L 358.226562 105.421875 L 374.921875 155.835938 L 391.617188 209.214844 L 408.3125 271.488281 L 425.007812 307.074219 L 441.703125 333.765625 L 458.398438 351.558594 "/>
<path style="fill-rule:nonzero;fill:rgb(0%,0%,0%);fill-opacity:1;stroke-width:0.75;stroke-linecap:round;stroke-linejoin:round;stroke:rgb(0%,0%,0%);stroke-opacity:1;stroke-miterlimit:10;" d="M 76.199219 351.558594 C 76.199219 353.957031 72.601562 353.957031 72.601562 351.558594 C 72.601562 349.160156 76.199219 349.160156 76.199219 351.558594 "/>
<path style="fill-rule:nonzero;fill:rgb(0%,0%,0%);fill-opacity:1;stroke-width:0.75;stroke-linecap:round;stroke-linejoin:round;stroke:rgb(0%,0%,0%);stroke-opacity:1;stroke-miterlimit:10;" d="M 92.894531 351.558594 C 92.894531 353.957031 89.296875 353.957031 89.296875 351.558594 C 89.296875 349.160156 92.894531 349.160156 92.894531 351.558594 "/>
<path style="fill-rule:nonzero;fill:rgb(0%,0%,0%);fill-opacity:1;stroke-width:0.75;stroke-linecap:round;stroke-linejoin:round;stroke:rgb(0%,0%,0%);stroke-opacity:1;stroke-miterlimit:10;" d="M 109.589844 378.25 C 109.589844 380.648438 105.992188 380.648438 105.992188 378.25 C 105.992188 375.847656 109.589844 375.847656 109.589844 378.25 "/>
<path style="fill-rule:nonzero;fill:rgb(0%,0%,0%);fill-opacity:1;stroke-width:0.75;stroke-linecap:round;stroke-linejoin:round;stroke:rgb(0%,0%,0%);stroke-opacity:1;stroke-miterlimit:10;" d="M 126.285156 387.144531 C 126.285156 389.542969 122.6875 389.542969 122.6875 387.144531 C 122.6875 384.746094 126.285156 384.746094 126.285156 387.144531 "/>
<path style="fill-rule:nonzero;fill:rgb(0%,0%,0%);fill-opacity:1;stroke-width:0.75;stroke-linecap:round;stroke-linejoin:round;stroke:rgb(0%,0%,0%);stroke-opacity:1;stroke-miterlimit:10;" d="M 142.984375 401.972656 C 142.984375 404.371094 139.382812 404.371094 139.382812 401.972656 C 139.382812 399.574219 142.984375 399.574219 142.984375 401.972656 "/>
<path style="fill-rule:nonzero;fill:rgb(0%,0%,0%);fill-opacity:1;stroke-width:0.75;stroke-linecap:round;stroke-linejoin:round;stroke:rgb(0%,0%,0%);stroke-opacity:1;stroke-miterlimit:10;" d="M 159.679688 416.800781 C 159.679688 419.199219 156.078125 419.199219 156.078125 416.800781 C 156.078125 414.398438 159.679688 414.398438 159.679688 416.800781 "/>
<path style="fill-rule:nonzero;fill:rgb(0%,0%,0%);fill-opacity:1;stroke-width:0.75;stroke-linecap:round;stroke-linejoin:round;stroke:rgb(0%,0%,0%);stroke-opacity:1;stroke-miterlimit:10;" d="M 176.375 393.074219 C 176.375 395.476562 172.773438 395.476562 172.773438 393.074219 C 172.773438 390.675781 176.375 390.675781 176.375 393.074219 "/>
<path style="fill-rule:nonzero;fill:rgb(0%,0%,0%);fill-opacity:1;stroke-width:0.75;stroke-linecap:round;stroke-linejoin:round;stroke:rgb(0%,0%,0%);stroke-opacity:1;stroke-miterlimit:10;" d="M 193.070312 399.007812 C 193.070312 401.40625 189.46875 401.40625 189.46875 399.007812 C 189.46875 396.605469 193.070312 396.605469 193.070312 399.007812 "/>
<path style="fill-rule:nonzero;fill:rgb(0%,0%,0%);fill-opacity:1;stroke-width:0.75;stroke-linecap:round;stroke-linejoin:round;stroke:rgb(0%,0%,0%);stroke-opacity:1;stroke-miterlimit:10;" d="M 209.765625 393.074219 C 209.765625 395.476562 206.164062 395.476562 206.164062 393.074219 C 206.164062 390.675781 209.765625 390.675781 209.765625 393.074219 "/>
<path style="fill-rule:nonzero;fill:rgb(0%,0%,0%);fill-opacity:1;stroke-width:0.75;stroke-linecap:round;stroke-linejoin:round;stroke:rgb(0%,0%,0%);stroke-opacity:1;stroke-miterlimit:10;" d="M 226.460938 315.972656 C 226.460938 318.371094 222.859375 318.371094 222.859375 315.972656 C 222.859375 313.574219 226.460938 313.574219 226.460938 315.972656 "/>
<path style="fill-rule:nonzero;fill:rgb(0%,0%,0%);fill-opacity:1;stroke-width:0.75;stroke-linecap:round;stroke-linejoin:round;stroke:rgb(0%,0%,0%);stroke-opacity:1;stroke-miterlimit:10;" d="M 243.15625 247.765625 C 243.15625 250.164062 239.554688 250.164062 239.554688 247.765625 C 239.554688 245.367188 243.15625 245.367188 243.15625 247.765625 "/>
<path style="fill-rule:nonzero;fill:rgb(0%,0%,0%);fill-opacity:1;stroke-width:0.75;stroke-linecap:round;stroke-linejoin:round;stroke:rgb(0%,0%,0%);stroke-opacity:1;stroke-miterlimit:10;" d="M 259.851562 173.628906 C 259.851562 176.027344 256.253906 176.027344 256.253906 173.628906 C 256.253906 171.226562 259.851562 171.226562 259.851562 173.628906 "/>
<path style="fill-rule:nonzero;fill:rgb(0%,0%,0%);fill-opacity:1;stroke-width:0.75;stroke-linecap:round;stroke-linejoin:round;stroke:rgb(0%,0%,0%);stroke-opacity:1;stroke-miterlimit:10;" d="M 276.546875 132.109375 C 276.546875 134.511719 272.949219 134.511719 272.949219 132.109375 C 272.949219 129.710938 276.546875 129.710938 276.546875 132.109375 "/>
<path style="fill-rule:nonzero;fill:rgb(0%,0%,0%);fill-opacity:1;stroke-width:0.75;stroke-linecap:round;stroke-linejoin:round;stroke:rgb(0%,0%,0%);stroke-opacity:1;stroke-miterlimit:10;" d="M 293.242188 108.386719 C 293.242188 110.785156 289.644531 110.785156 289.644531 108.386719 C 289.644531 105.984375 293.242188 105.984375 293.242188 108.386719 "/>
<path style="fill-rule:nonzero;fill:rgb(0%,0%,0%);fill-opacity:1;stroke-width:0.75;stroke-linecap:round;stroke-linejoin:round;stroke:rgb(0%,0%,0%);stroke-opacity:1;stroke-miterlimit:10;" d="M 309.9375 78.730469 C 309.9375 81.132812 306.339844 81.132812 306.339844 78.730469 C 306.339844 76.332031 309.9375 76.332031 309.9375 78.730469 "/>
<path style="fill-rule:nonzero;fill:rgb(0%,0%,0%);fill-opacity:1;stroke-width:0.75;stroke-linecap:round;stroke-linejoin:round;stroke:rgb(0%,0%,0%);stroke-opacity:1;stroke-miterlimit:10;" d="M 326.636719 72.800781 C 326.636719 75.199219 323.035156 75.199219 323.035156 72.800781 C 323.035156 70.398438 326.636719 70.398438 326.636719 72.800781 "/>
<path style="fill-rule:nonzero;fill:rgb(0%,0%,0%);fill-opacity:1;stroke-width:0.75;stroke-linecap:round;stroke-linejoin:round;stroke:rgb(0%,0%,0%);stroke-opacity:1;stroke-miterlimit:10;" d="M 343.332031 72.800781 C 343.332031 75.199219 339.730469 75.199219 339.730469 72.800781 C 339.730469 70.398438 343.332031 70.398438 343.332031 72.800781 "/>
<path style="fill-rule:nonzero;fill:rgb(0%,0%,0%);fill-opacity:1;stroke-width:0.75;stroke-linecap:round;stroke-linejoin:round;stroke:rgb(0%,0%,0%);stroke-opacity:1;stroke-miterlimit:10;" d="M 360.027344 105.421875 C 360.027344 107.820312 356.425781 107.820312 356.425781 105.421875 C 356.425781 103.019531 360.027344 103.019531 360.027344 105.421875 "/>
<path style="fill-rule:nonzero;fill:rgb(0%,0%,0%);fill-opacity:1;stroke-width:0.75;stroke-linecap:round;stroke-linejoin:round;stroke:rgb(0%,0%,0%);stroke-opacity:1;stroke-miterlimit:10;" d="M 376.722656 155.835938 C 376.722656 158.234375 373.121094 158.234375 373.121094 155.835938 C 373.121094 153.433594 376.722656 153.433594 376.722656 155.835938 "/>
<path style="fill-rule:nonzero;fill:rgb(0%,0%,0%);fill-opacity:1;stroke-width:0.75;stroke-linecap:round;stroke-linejoin:round;stroke:rgb(0%,0%,0%);stroke-opacity:1;stroke-miterlimit:10;" d="M 393.417969 209.214844 C 393.417969 211.613281 389.816406 211.613281 389.816406 209.214844 C 389.816406 206.8125 393.417969 206.8125 393.417969 209.214844 "/>
<path style="fill-rule:nonzero;fill:rgb(0%,0%,0%);fill-opacity:1;stroke-width:0.75;stroke-linecap:round;stroke-linejoin:round;stroke:rgb(0%,0%,0%);stroke-opacity:1;stroke-miterlimit:10;" d="M 410.113281 271.488281 C 410.113281 273.890625 406.511719 273.890625 406.511719 271.488281 C 406.511719 269.089844 410.113281 269.089844 410.113281 271.488281 "/>
<path style="fill-rule:nonzero;fill:rgb(0%,0%,0%);fill-opacity:1;stroke-width:0.75;stroke-linecap:round;stroke-linejoin:round;stroke:rgb(0%,0%,0%);stroke-opacity:1;stroke-miterlimit:10;" d="M 426.808594 307.074219 C 426.808594 309.476562 423.207031 309.476562 423.207031 307.074219 C 423.207031 304.675781 426.808594 304.675781 426.808594 307.074219 "/>
<path style="fill-rule:nonzero;fill:rgb(0%,0%,0%);fill-opacity:1;stroke-width:0.75;stroke-linecap:round;stroke-linejoin:round;stroke:rgb(0%,0%,0%);stroke-opacity:1;stroke-miterlimit:10;" d="M 443.503906 333.765625 C 443.503906 336.164062 439.90625 336.164062 439.90625 333.765625 C 439.90625 331.367188 443.503906 331.367188 443.503906 333.765625 "/>
<path style="fill-rule:nonzero;fill:rgb(0%,0%,0%);fill-opacity:1;stroke-width:0.75;stroke-linecap:round;stroke-linejoin:round;stroke:rgb(0%,0%,0%);stroke-opacity:1;stroke-miterlimit:10;" d="M 460.199219 351.558594 C 460.199219 353.957031 456.601562 353.957031 456.601562 351.558594 C 456.601562 349.160156 460.199219 349.160156 460.199219 351.558594 "/>
</g>
</svg>
