<?xml version="1.0" encoding="UTF-8"?>
<svg xmlns="http://www.w3.org/2000/svg" xmlns:xlink="http://www.w3.org/1999/xlink" width="504pt" height="504pt" viewBox="0 0 504 504" version="1.1">
<g id="surface64">
<rect x="0" y="0" width="504" height="504" style="fill:rgb(100%,100%,100%);fill-opacity:1;stroke:none;"/>
<path style="fill:none;stroke-width:2.25;stroke-linecap:round;stroke-linejoin:round;stroke:rgb(0%,61.960784%,45.098039%);stroke-opacity:1;stroke-miterlimit:10;" d="M 74.398438 313.601562 L 91.09375 327.933594 L 107.792969 353.734375 L 124.488281 376.667969 L 141.183594 393.867188 L 157.878906 402.464844 L 174.574219 370.933594 L 207.964844 411.066406 L 224.660156 339.398438 L 241.355469 239.066406 L 274.746094 153.066406 L 291.445312 115.800781 L 308.140625 87.132812 L 324.835938 72.800781 L 341.53125 90 L 358.226562 144.464844 L 374.921875 196.066406 L 391.617188 244.800781 L 408.3125 333.667969 L 425.007812 376.667969 L 458.398438 416.800781 "/>
<path style="fill-rule:nonzero;fill:rgb(0%,0%,0%);fill-opacity:1;stroke-width:0.75;stroke-linecap:round;stroke-linejoin:round;stroke:rgb(0%,0%,0%);stroke-opacity:1;stroke-miterlimit:10;" d="M 76.199219 313.601562 C 76.199219 316 72.601562 316 72.601562 313.601562 C 72.601562 311.199219 76.199219 311.199219 76.199219 313.601562 "/>
<path style="fill-rule:nonzero;fill:rgb(0%,0%,0%);fill-opacity:1;stroke-width:0.75;stroke-linecap:round;stroke-linejoin:round;stroke:rgb(0%,0%,0%);stroke-opacity:1;stroke-miterlimit:10;" d="M 92.894531 327.933594 C 92.894531 330.332031 89.296875 330.332031 89.296875 327.933594 C 89.296875 325.535156 92.894531 325.535156 92.894531 327.933594 "/>
<path style="fill-rule:nonzero;fill:rgb(0%,0%,0%);fill-opacity:1;stroke-width:0.75;stroke-linecap:round;stroke-linejoin:round;stroke:rgb(0%,0%,0%);stroke-opacity:1;stroke-miterlimit:10;" d="M 109.589844 353.734375 C 109.589844 356.132812 105.992188 356.132812 105.992188 353.734375 C 105.992188 351.332031 109.589844 351.332031 109.589844 353.734375 "/>
<path style="fill-rule:nonzero;fill:rgb(0%,0%,0%);fill-opacity:1;stroke-width:0.75;stroke-linecap:round;stroke-linejoin:round;stroke:rgb(0%,0%,0%);stroke-opacity:1;stroke-miterlimit:10;" d="M 126.285156 376.667969 C 126.285156 379.066406 122.6875 379.066406 122.6875 376.667969 C 122.6875 374.265625 126.285156 374.265625 126.285156 376.667969 "/>
<path style="fill-rule:nonzero;fill:rgb(0%,0%,0%);fill-opacity:1;stroke-width:0.75;stroke-linecap:round;stroke-linejoin:round;stroke:rgb(0%,0%,0%);stroke-opacity:1;stroke-miterlimit:10;" d="M 142.984375 393.867188 C 142.984375 396.265625 139.382812 396.265625 139.382812 393.867188 C 139.382812 391.464844 142.984375 391.464844 142.984375 393.867188 "/>
<path style="fill-rule:nonzero;fill:rgb(0%,0%,0%);fill-opacity:1;stroke-width:0.75;stroke-linecap:round;stroke-linejoin:round;stroke:rgb(0%,0%,0%);stroke-opacity:1;stroke-miterlimit:10;" d="M 159.679688 402.464844 C 159.679688 404.867188 156.078125 404.867188 156.078125 402.464844 C 156.078125 400.066406 159.679688 400.066406 159.679688 402.464844 "/>
<path style="fill-rule:nonzero;fill:rgb(0%,0%,0%);fill-opacity:1;stroke-width:0.75;stroke-linecap:round;stroke-linejoin:round;stroke:rgb(0%,0%,0%);stroke-opacity:1;stroke-miterlimit:10;" d="M 176.375 370.933594 C 176.375 373.332031 172.773438 373.332031 172.773438 370.933594 C 172.773438 368.535156 176.375 368.535156 176.375 370.933594 "/>
<path style="fill-rule:nonzero;fill:rgb(0%,0%,0%);fill-opacity:1;stroke-width:0.75;stroke-linecap:round;stroke-linejoin:round;stroke:rgb(0%,0%,0%);stroke-opacity:1;stroke-miterlimit:10;" d="M 193.070312 391 C 193.070312 393.398438 189.46875 393.398438 189.46875 391 C 189.46875 388.601562 193.070312 388.601562 193.070312 391 "/>
<path style="fill-rule:nonzero;fill:rgb(0%,0%,0%);fill-opacity:1;stroke-width:0.75;stroke-linecap:round;stroke-linejoin:round;stroke:rgb(0%,0%,0%);stroke-opacity:1;stroke-miterlimit:10;" d="M 209.765625 411.066406 C 209.765625 413.464844 206.164062 413.464844 206.164062 411.066406 C 206.164062 408.667969 209.765625 408.667969 209.765625 411.066406 "/>
<path style="fill-rule:nonzero;fill:rgb(0%,0%,0%);fill-opacity:1;stroke-width:0.75;stroke-linecap:round;stroke-linejoin:round;stroke:rgb(0%,0%,0%);stroke-opacity:1;stroke-miterlimit:10;" d="M 226.460938 339.398438 C 226.460938 341.800781 222.859375 341.800781 222.859375 339.398438 C 222.859375 337 226.460938 337 226.460938 339.398438 "/>
<path style="fill-rule:nonzero;fill:rgb(0%,0%,0%);fill-opacity:1;stroke-width:0.75;stroke-linecap:round;stroke-linejoin:round;stroke:rgb(0%,0%,0%);stroke-opacity:1;stroke-miterlimit:10;" d="M 243.15625 239.066406 C 243.15625 241.464844 239.554688 241.464844 239.554688 239.066406 C 239.554688 236.667969 243.15625 236.667969 243.15625 239.066406 "/>
<path style="fill-rule:nonzero;fill:rgb(0%,0%,0%);fill-opacity:1;stroke-width:0.75;stroke-linecap:round;stroke-linejoin:round;stroke:rgb(0%,0%,0%);stroke-opacity:1;stroke-miterlimit:10;" d="M 259.851562 196.066406 C 259.851562 198.464844 256.253906 198.464844 256.253906 196.066406 C 256.253906 193.667969 259.851562 193.667969 259.851562 196.066406 "/>
<path style="fill-rule:nonzero;fill:rgb(0%,0%,0%);fill-opacity:1;stroke-width:0.75;stroke-linecap:round;stroke-linejoin:round;stroke:rgb(0%,0%,0%);stroke-opacity:1;stroke-miterlimit:10;" d="M 276.546875 153.066406 C 276.546875 155.464844 272.949219 155.464844 272.949219 153.066406 C 272.949219 150.667969 276.546875 150.667969 276.546875 153.066406 "/>
<path style="fill-rule:nonzero;fill:rgb(0%,0%,0%);fill-opacity:1;stroke-width:0.75;stroke-linecap:round;stroke-linejoin:round;stroke:rgb(0%,0%,0%);stroke-opacity:1;stroke-miterlimit:10;" d="M 293.242188 115.800781 C 293.242188 118.199219 289.644531 118.199219 289.644531 115.800781 C 289.644531 113.398438 293.242188 113.398438 293.242188 115.800781 "/>
<path style="fill-rule:nonzero;fill:rgb(0%,0%,0%);fill-opacity:1;stroke-width:0.75;stroke-linecap:round;stroke-linejoin:round;stroke:rgb(0%,0%,0%);stroke-opacity:1;stroke-miterlimit:10;" d="M 309.9375 87.132812 C 309.9375 89.535156 306.339844 89.535156 306.339844 87.132812 C 306.339844 84.734375 309.9375 84.734375 309.9375 87.132812 "/>
<path style="fill-rule:nonzero;fill:rgb(0%,0%,0%);fill-opacity:1;stroke-width:0.75;stroke-linecap:round;stroke-linejoin:round;stroke:rgb(0%,0%,0%);stroke-opacity:1;stroke-miterlimit:10;" d="M 326.636719 72.800781 C 326.636719 75.199219 323.035156 75.199219 323.035156 72.800781 C 323.035156 70.398438 326.636719 70.398438 326.636719 72.800781 "/>
<path style="fill-rule:nonzero;fill:rgb(0%,0%,0%);fill-opacity:1;stroke-width:0.75;stroke-linecap:round;stroke-linejoin:round;stroke:rgb(0%,0%,0%);stroke-opacity:1;stroke-miterlimit:10;" d="M 343.332031 90 C 343.332031 92.398438 339.730469 92.398438 339.730469 90 C 339.730469 87.601562 343.332031 87.601562 343.332031 90 "/>
<path style="fill-rule:nonzero;fill:rgb(0%,0%,0%);fill-opacity:1;stroke-width:0.75;stroke-linecap:round;stroke-linejoin:round;stroke:rgb(0%,0%,0%);stroke-opacity:1;stroke-miterlimit:10;" d="M 360.027344 144.464844 C 360.027344 146.867188 356.425781 146.867188 356.425781 144.464844 C 356.425781 142.066406 360.027344 142.066406 360.027344 144.464844 "/>
<path style="fill-rule:nonzero;fill:rgb(0%,0%,0%);fill-opacity:1;stroke-width:0.75;stroke-linecap:round;stroke-linejoin:round;stroke:rgb(0%,0%,0%);stroke-opacity:1;stroke-miterlimit:10;" d="M 376.722656 196.066406 C 376.722656 198.464844 373.121094 198.464844 373.121094 196.066406 C 373.121094 193.667969 376.722656 193.667969 376.722656 196.066406 "/>
<path style="fill-rule:nonzero;fill:rgb(0%,0%,0%);fill-opacity:1;stroke-width:0.75;stroke-linecap:round;stroke-linejoin:round;stroke:rgb(0%,0%,0%);stroke-opacity:1;stroke-miterlimit:10;" d="M 393.417969 244.800781 C 393.417969 247.199219 389.816406 247.199219 389.816406 244.800781 C 389.816406 242.398438 393.417969 242.398438 393.417969 244.800781 "/>
<path style="fill-rule:nonzero;fill:rgb(0%,0%,0%);fill-opacity:1;stroke-width:0.75;stroke-linecap:round;stroke-linejoin:round;stroke:rgb(0%,0%,0%);stroke-opacity:1;stroke-miterlimit:10;" d="M 410.113281 333.667969 C 410.113281 336.066406 406.511719 336.066406 406.511719 333.667969 C 406.511719 331.265625 410.113281 331.265625 410.113281 333.667969 "/>
<path style="fill-rule:nonzero;fill:rgb(0%,0%,0%);fill-opacity:1;stroke-width:0.75;stroke-linecap:round;stroke-linejoin:round;stroke:rgb(0%,0%,0%);stroke-opacity:1;stroke-miterlimit:10;" d="M 426.808594 376.667969 C 426.808594 379.066406 423.207031 379.066406 423.207031 376.667969 C 423.207031 374.265625 426.808594 374.265625 426.808594 376.667969 "/>
<path style="fill-rule:nonzero;fill:rgb(0%,0%,0%);fill-opacity:1;stroke-width:0.75;stroke-linecap:round;stroke-linejoin:round;stroke:rgb(0%,0%,0%);stroke-opacity:1;stroke-miterlimit:10;" d="M 443.503906 396.734375 C 443.503906 399.132812 439.90625 399.132812 439.90625 396.734375 C 439.90625 394.332031 443.503906 394.332031 443.503906 396.734375 "/>
<path style="fill-rule:nonzero;fill:rgb(0%,0%,0%);fill-opacity:1;stroke-width:0.75;stroke-linecap:round;stroke-linejoin:round;stroke:rgb(0%,0%,0%);stroke-opacity:1;stroke-miterlimit:10;" d="M 460.199219 416.800781 C 460.199219 419.199219 456.601562 419.199219 456.601562 416.800781 C 456.601562 414.398438 460.199219 414.398438 460.199219 416.800781 "/>
</g>
</svg>
