<?xml version="1.0" encoding="UTF-8" standalone="no"?>
<!-- Created with Inkscape (http://www.inkscape.org/) -->

<svg
   xmlns:dc="http://purl.org/dc/elements/1.1/"
   xmlns:cc="http://creativecommons.org/ns#"
   xmlns:rdf="http://www.w3.org/1999/02/22-rdf-syntax-ns#"
   xmlns:svg="http://www.w3.org/2000/svg"
   xmlns="http://www.w3.org/2000/svg"
   xmlns:sodipodi="http://sodipodi.sourceforge.net/DTD/sodipodi-0.dtd"
   xmlns:inkscape="http://www.inkscape.org/namespaces/inkscape"
   width="210mm"
   height="297mm"
   viewBox="0 0 744.09448819 1052.3622047"
   id="svg2"
   version="1.1"
   inkscape:version="0.91 r13725"
   sodipodi:docname="table_inputs_outputs-i.svg">
  <defs
     id="defs4" />
  <sodipodi:namedview
     id="base"
     pagecolor="#ffffff"
     bordercolor="#666666"
     borderopacity="1.0"
     inkscape:pageopacity="0.0"
     inkscape:pageshadow="2"
     inkscape:zoom="0.98994949"
     inkscape:cx="78.364448"
     inkscape:cy="456.82668"
     inkscape:document-units="px"
     inkscape:current-layer="layer1"
     showgrid="false"
     inkscape:window-width="1892"
     inkscape:window-height="998"
     inkscape:window-x="0"
     inkscape:window-y="28"
     inkscape:window-maximized="1" />
  <metadata
     id="metadata7">
    <rdf:RDF>
      <cc:Work
         rdf:about="">
        <dc:format>image/svg+xml</dc:format>
        <dc:type
           rdf:resource="http://purl.org/dc/dcmitype/StillImage" />
        <dc:title />
      </cc:Work>
    </rdf:RDF>
  </metadata>
  <g
     inkscape:label="Capa 1"
     inkscape:groupmode="layer"
     id="layer1">
    <rect
       style="fill:none;stroke:#000000;stroke-width:2;stroke-miterlimit:4;stroke-dasharray:none;stroke-opacity:1"
       id="rect3342"
       width="513.56396"
       height="341.91342"
       x="123.84534"
       y="522.28925" />
    <path
       style="fill:none;fill-rule:evenodd;stroke:#000000;stroke-width:2;stroke-linecap:butt;stroke-linejoin:miter;stroke-opacity:1;stroke-miterlimit:4;stroke-dasharray:none"
       d="m 467.02273,862.04565 2.0558,-339.2126 1.0279,-2.06212"
       id="path4144-3"
       inkscape:connector-curvature="0" />
    <path
       style="fill:none;fill-rule:evenodd;stroke:#000000;stroke-width:2;stroke-linecap:butt;stroke-linejoin:miter;stroke-opacity:1;stroke-miterlimit:4;stroke-dasharray:none"
       d="m 124.06096,609.31933 514.983,-1.03109"
       id="path4161"
       inkscape:connector-curvature="0" />
    <path
       style="fill:none;fill-rule:evenodd;stroke:#000000;stroke-width:2;stroke-linecap:butt;stroke-linejoin:miter;stroke-opacity:1;stroke-miterlimit:4;stroke-dasharray:none"
       d="m 121.49123,694.38023 514.983,-1.0311"
       id="path4161-6"
       inkscape:connector-curvature="0" />
    <path
       style="fill:none;fill-rule:evenodd;stroke:#000000;stroke-width:2;stroke-linecap:butt;stroke-linejoin:miter;stroke-opacity:1;stroke-miterlimit:4;stroke-dasharray:none"
       d="m 121.31446,780.00078 514.98299,-1.03109"
       id="path4161-6-9"
       inkscape:connector-curvature="0" />
    <path
       id="path4390"
       d="m 147.02884,670.34489 13.00327,3.20121 13.00632,2.2868 13.00328,0.9152 13.00327,1.8296 13.00327,0.91439 13.00327,2.28682 13.00329,1.8296 13.00326,-2.28681 13.0033,-5.4888 26.00653,-27.44161 13.00326,-8.23279 13.00632,-9.60441 13.00328,-6.8604 13.00328,-5.94599 13.00327,-3.20122 13.00328,8.23201 13.00325,8.23281 13.00328,12.80639 13.00327,11.8912 13.00328,5.94601 13.00326,2.744 13.00329,1.8296"
       style="fill:none;stroke:#0000ff;stroke-width:5;stroke-linecap:round;stroke-linejoin:round;stroke-miterlimit:10;stroke-opacity:1;stroke-dasharray:none"
       inkscape:connector-curvature="0" />
    <path
       id="path4477"
       d="m 139.07649,750.31705 13.32208,0 13.3252,4.59595 13.32207,1.53153 26.64416,5.10647 13.32207,-4.08544 13.32208,1.02169 13.32208,-1.02169 13.32208,-13.276 13.32208,-11.74447 13.32207,-12.76549 13.32208,-7.14919 13.3252,-4.08476 13.32207,-5.10647 13.32209,-1.02102 13.32207,0 13.32209,5.61697 13.32206,8.68073 13.32209,9.19123 13.32208,10.72277 13.32208,6.12749 13.32207,4.59595 13.32209,3.06375"
       style="fill:none;stroke:#0000ff;stroke-width:5;stroke-linecap:round;stroke-linejoin:round;stroke-miterlimit:10;stroke-dasharray:none;stroke-opacity:1"
       inkscape:connector-curvature="0" />
    <path
       id="path4564"
       d="m 135.59636,843.33907 13.87316,1.71229 13.8764,3.42459 13.87315,1.71302 13.87315,3.42461 13.87318,-0.57127 13.87314,-0.57052 13.87315,-2.28282 13.87316,-2.28353 13.87315,-7.99095 13.87316,-13.12856 13.87316,-11.41556 13.87315,-9.70325 13.8764,-3.99583 13.87315,-5.70814 13.87316,-5.70742 13.87316,3.99514 13.87314,6.27865 13.87317,6.84991 13.87315,3.42459 13.87316,6.84989 13.87315,8.56149 13.87315,7.99094 13.87317,3.42461"
       style="fill:none;stroke:#0000ff;stroke-width:5;stroke-linecap:round;stroke-linejoin:round;stroke-miterlimit:10;stroke-opacity:1;stroke-dasharray:none"
       inkscape:connector-curvature="0" />
    <text
       xml:space="preserve"
       style="font-style:normal;font-weight:normal;font-size:40px;line-height:125%;font-family:sans-serif;letter-spacing:0px;word-spacing:0px;fill:#000000;fill-opacity:1;stroke:none;stroke-width:1px;stroke-linecap:butt;stroke-linejoin:miter;stroke-opacity:1"
       x="501.42856"
       y="578.07654"
       id="text4595"
       sodipodi:linespacing="125%"><tspan
         sodipodi:role="line"
         id="tspan4597"
         x="501.42856"
         y="578.07654">2676</tspan></text>
    <text
       xml:space="preserve"
       style="font-style:normal;font-weight:normal;font-size:40px;line-height:125%;font-family:sans-serif;letter-spacing:0px;word-spacing:0px;fill:#000000;fill-opacity:1;stroke:none;stroke-width:1px;stroke-linecap:butt;stroke-linejoin:miter;stroke-opacity:1"
       x="498.57141"
       y="665.2193"
       id="text4599"
       sodipodi:linespacing="125%"><tspan
         sodipodi:role="line"
         id="tspan4601"
         x="498.57141"
         y="665.2193">2545</tspan><tspan
         sodipodi:role="line"
         x="498.57141"
         y="715.2193"
         id="tspan4603" /></text>
    <text
       xml:space="preserve"
       style="font-style:normal;font-weight:normal;font-size:40px;line-height:125%;font-family:sans-serif;letter-spacing:0px;word-spacing:0px;fill:#000000;fill-opacity:1;stroke:none;stroke-width:1px;stroke-linecap:butt;stroke-linejoin:miter;stroke-opacity:1"
       x="500"
       y="740.93359"
       id="text4605"
       sodipodi:linespacing="125%"><tspan
         sodipodi:role="line"
         id="tspan4607"
         x="500"
         y="740.93359">2504</tspan></text>
    <text
       xml:space="preserve"
       style="font-style:normal;font-weight:normal;font-size:40px;line-height:125%;font-family:sans-serif;letter-spacing:0px;word-spacing:0px;fill:#000000;fill-opacity:1;stroke:none;stroke-width:1px;stroke-linecap:butt;stroke-linejoin:miter;stroke-opacity:1"
       x="503.14285"
       y="827.21936"
       id="text4609"
       sodipodi:linespacing="125%"><tspan
         sodipodi:role="line"
         id="tspan4611"
         x="503.14285"
         y="827.21936">2727</tspan></text>
    <g
       id="g4364"
       transform="matrix(0.65592237,0,0,0.99802859,407.92088,108.48214)"
       style="stroke-width:5.73883152;stroke-miterlimit:10;stroke-dasharray:none">
      <path
         id="path4255"
         d="m -408.15282,470.10393 20.89374,2.73635 20.89861,4.92604 20.89373,4.37862 20.89373,3.28377 20.89375,1.64152 20.89373,-6.02013 41.78745,7.66239 20.89374,-13.68327 20.89373,-19.15598 41.78745,-16.41962 20.89863,-7.11497 20.89373,-5.47346 20.893736,-2.73636 20.893721,3.28378 20.893731,10.39875 20.893732,9.85207 20.893741,9.30465 20.893731,16.96704 20.893691,8.20982 41.787482,7.66239"
         style="fill:none;stroke:#009c73;stroke-width:5.73883152;stroke-linecap:round;stroke-linejoin:round;stroke-miterlimit:10;stroke-dasharray:none;stroke-opacity:1"
         inkscape:connector-curvature="0" />
      <path
         id="path4257"
         d="m -405.89919,470.10393 c 0,0.45792 -4.50237,0.45792 -4.50237,0 0,-0.45867 4.50237,-0.45867 4.50237,0"
         style="fill:#000000;fill-opacity:1;fill-rule:nonzero;stroke:#000000;stroke-width:5.73883152;stroke-linecap:round;stroke-linejoin:round;stroke-miterlimit:10;stroke-dasharray:none;stroke-opacity:1"
         inkscape:connector-curvature="0" />
      <path
         id="path4259"
         d="m -385.00546,472.84028 c 0,0.45793 -4.50237,0.45793 -4.50237,0 0,-0.45792 4.50237,-0.45792 4.50237,0"
         style="fill:#000000;fill-opacity:1;fill-rule:nonzero;stroke:#000000;stroke-width:5.73883152;stroke-linecap:round;stroke-linejoin:round;stroke-miterlimit:10;stroke-dasharray:none;stroke-opacity:1"
         inkscape:connector-curvature="0" />
      <path
         id="path4261"
         d="m -364.11173,477.76632 c 0,0.45792 -4.50236,0.45792 -4.50236,0 0,-0.45867 4.50236,-0.45867 4.50236,0"
         style="fill:#000000;fill-opacity:1;fill-rule:nonzero;stroke:#000000;stroke-width:5.73883152;stroke-linecap:round;stroke-linejoin:round;stroke-miterlimit:10;stroke-dasharray:none;stroke-opacity:1"
         inkscape:connector-curvature="0" />
      <path
         id="path4263"
         d="m -343.21799,482.14494 c 0,0.45792 -4.50237,0.45792 -4.50237,0 0,-0.45867 4.50237,-0.45867 4.50237,0"
         style="fill:#000000;fill-opacity:1;fill-rule:nonzero;stroke:#000000;stroke-width:5.73883152;stroke-linecap:round;stroke-linejoin:round;stroke-miterlimit:10;stroke-dasharray:none;stroke-opacity:1"
         inkscape:connector-curvature="0" />
      <path
         id="path4265"
         d="m -322.31938,485.42871 c 0,0.45792 -4.50726,0.45792 -4.50726,0 0,-0.45867 4.50726,-0.45867 4.50726,0"
         style="fill:#000000;fill-opacity:1;fill-rule:nonzero;stroke:#000000;stroke-width:5.73883152;stroke-linecap:round;stroke-linejoin:round;stroke-miterlimit:10;stroke-dasharray:none;stroke-opacity:1"
         inkscape:connector-curvature="0" />
      <path
         id="path4267"
         d="m -301.42564,487.07023 c 0,0.45867 -4.50727,0.45867 -4.50727,0 0,-0.45793 4.50727,-0.45793 4.50727,0"
         style="fill:#000000;fill-opacity:1;fill-rule:nonzero;stroke:#000000;stroke-width:5.73883152;stroke-linecap:round;stroke-linejoin:round;stroke-miterlimit:10;stroke-dasharray:none;stroke-opacity:1"
         inkscape:connector-curvature="0" />
      <path
         id="path4269"
         d="m -280.53191,481.0501 c 0,0.45792 -4.50726,0.45792 -4.50726,0 0,-0.45793 4.50726,-0.45793 4.50726,0"
         style="fill:#000000;fill-opacity:1;fill-rule:nonzero;stroke:#000000;stroke-width:5.73883152;stroke-linecap:round;stroke-linejoin:round;stroke-miterlimit:10;stroke-dasharray:none;stroke-opacity:1"
         inkscape:connector-curvature="0" />
      <path
         id="path4271"
         d="m -259.63818,484.88129 c 0,0.45793 -4.50725,0.45793 -4.50725,0 0,-0.45792 4.50725,-0.45792 4.50725,0"
         style="fill:#000000;fill-opacity:1;fill-rule:nonzero;stroke:#000000;stroke-width:5.73883152;stroke-linecap:round;stroke-linejoin:round;stroke-miterlimit:10;stroke-dasharray:none;stroke-opacity:1"
         inkscape:connector-curvature="0" />
      <path
         id="path4273"
         d="m -238.74445,488.71249 c 0,0.45792 -4.50725,0.45792 -4.50725,0 0,-0.45793 4.50725,-0.45793 4.50725,0"
         style="fill:#000000;fill-opacity:1;fill-rule:nonzero;stroke:#000000;stroke-width:5.73883152;stroke-linecap:round;stroke-linejoin:round;stroke-miterlimit:10;stroke-dasharray:none;stroke-opacity:1"
         inkscape:connector-curvature="0" />
      <path
         id="path4275"
         d="m -217.85071,475.02922 c 0,0.45867 -4.50727,0.45867 -4.50727,0 0,-0.45792 4.50727,-0.45792 4.50727,0"
         style="fill:#000000;fill-opacity:1;fill-rule:nonzero;stroke:#000000;stroke-width:5.73883152;stroke-linecap:round;stroke-linejoin:round;stroke-miterlimit:10;stroke-dasharray:none;stroke-opacity:1"
         inkscape:connector-curvature="0" />
      <path
         id="path4277"
         d="m -196.95699,455.87324 c 0,0.45792 -4.50725,0.45792 -4.50725,0 0,-0.45792 4.50725,-0.45792 4.50725,0"
         style="fill:#000000;fill-opacity:1;fill-rule:nonzero;stroke:#000000;stroke-width:5.73883152;stroke-linecap:round;stroke-linejoin:round;stroke-miterlimit:10;stroke-dasharray:none;stroke-opacity:1"
         inkscape:connector-curvature="0" />
      <path
         id="path4279"
         d="m -176.06326,447.66343 c 0,0.45792 -4.50236,0.45792 -4.50236,0 0,-0.45792 4.50236,-0.45792 4.50236,0"
         style="fill:#000000;fill-opacity:1;fill-rule:nonzero;stroke:#000000;stroke-width:5.73883152;stroke-linecap:round;stroke-linejoin:round;stroke-miterlimit:10;stroke-dasharray:none;stroke-opacity:1"
         inkscape:connector-curvature="0" />
      <path
         id="path4281"
         d="m -155.16952,439.45362 c 0,0.45792 -4.50236,0.45792 -4.50236,0 0,-0.45793 4.50236,-0.45793 4.50236,0"
         style="fill:#000000;fill-opacity:1;fill-rule:nonzero;stroke:#000000;stroke-width:5.73883152;stroke-linecap:round;stroke-linejoin:round;stroke-miterlimit:10;stroke-dasharray:none;stroke-opacity:1"
         inkscape:connector-curvature="0" />
      <path
         id="path4283"
         d="m -134.27578,432.33865 c 0,0.45792 -4.50238,0.45792 -4.50238,0 0,-0.45867 4.50238,-0.45867 4.50238,0"
         style="fill:#000000;fill-opacity:1;fill-rule:nonzero;stroke:#000000;stroke-width:5.73883152;stroke-linecap:round;stroke-linejoin:round;stroke-miterlimit:10;stroke-dasharray:none;stroke-opacity:1"
         inkscape:connector-curvature="0" />
      <path
         id="path4285"
         d="m -113.38205,426.86519 c 0,0.45867 -4.50238,0.45867 -4.50238,0 0,-0.45792 4.50238,-0.45792 4.50238,0"
         style="fill:#000000;fill-opacity:1;fill-rule:nonzero;stroke:#000000;stroke-width:5.73883152;stroke-linecap:round;stroke-linejoin:round;stroke-miterlimit:10;stroke-dasharray:none;stroke-opacity:1"
         inkscape:connector-curvature="0" />
      <path
         id="path4287"
         d="m -92.483441,424.12883 c 0,0.45793 -4.507255,0.45793 -4.507255,0 0,-0.45866 4.507255,-0.45866 4.507255,0"
         style="fill:#000000;fill-opacity:1;fill-rule:nonzero;stroke:#000000;stroke-width:5.73883152;stroke-linecap:round;stroke-linejoin:round;stroke-miterlimit:10;stroke-dasharray:none;stroke-opacity:1"
         inkscape:connector-curvature="0" />
      <path
         id="path4289"
         d="m -71.58971,427.41261 c 0,0.45792 -4.507255,0.45792 -4.507255,0 0,-0.45792 4.507255,-0.45792 4.507255,0"
         style="fill:#000000;fill-opacity:1;fill-rule:nonzero;stroke:#000000;stroke-width:5.73883152;stroke-linecap:round;stroke-linejoin:round;stroke-miterlimit:10;stroke-dasharray:none;stroke-opacity:1"
         inkscape:connector-curvature="0" />
      <path
         id="path4291"
         d="m -50.695979,437.81136 c 0,0.45867 -4.507255,0.45867 -4.507255,0 0,-0.45793 4.507255,-0.45793 4.507255,0"
         style="fill:#000000;fill-opacity:1;fill-rule:nonzero;stroke:#000000;stroke-width:5.73883152;stroke-linecap:round;stroke-linejoin:round;stroke-miterlimit:10;stroke-dasharray:none;stroke-opacity:1"
         inkscape:connector-curvature="0" />
      <path
         id="path4293"
         d="m -29.802238,447.66343 c 0,0.45792 -4.507275,0.45792 -4.507275,0 0,-0.45792 4.507275,-0.45792 4.507275,0"
         style="fill:#000000;fill-opacity:1;fill-rule:nonzero;stroke:#000000;stroke-width:5.73883152;stroke-linecap:round;stroke-linejoin:round;stroke-miterlimit:10;stroke-dasharray:none;stroke-opacity:1"
         inkscape:connector-curvature="0" />
      <path
         id="path4295"
         d="m -8.9085166,456.96808 c 0,0.45792 -4.5072554,0.45792 -4.5072554,0 0,-0.45867 4.5072554,-0.45867 4.5072554,0"
         style="fill:#000000;fill-opacity:1;fill-rule:nonzero;stroke:#000000;stroke-width:5.73883152;stroke-linecap:round;stroke-linejoin:round;stroke-miterlimit:10;stroke-dasharray:none;stroke-opacity:1"
         inkscape:connector-curvature="0" />
      <path
         id="path4297"
         d="m 11.985214,473.93512 c 0,0.45793 -4.5072545,0.45793 -4.5072545,0 0,-0.45867 4.5072545,-0.45867 4.5072545,0"
         style="fill:#000000;fill-opacity:1;fill-rule:nonzero;stroke:#000000;stroke-width:5.73883152;stroke-linecap:round;stroke-linejoin:round;stroke-miterlimit:10;stroke-dasharray:none;stroke-opacity:1"
         inkscape:connector-curvature="0" />
      <path
         id="path4299"
         d="m 32.878935,482.14494 c 0,0.45792 -4.507205,0.45792 -4.507205,0 0,-0.45867 4.507205,-0.45867 4.507205,0"
         style="fill:#000000;fill-opacity:1;fill-rule:nonzero;stroke:#000000;stroke-width:5.73883152;stroke-linecap:round;stroke-linejoin:round;stroke-miterlimit:10;stroke-dasharray:none;stroke-opacity:1"
         inkscape:connector-curvature="0" />
      <path
         id="path4301"
         d="m 53.772726,485.97613 c 0,0.45792 -4.502399,0.45792 -4.502399,0 0,-0.45867 4.502399,-0.45867 4.502399,0"
         style="fill:#000000;fill-opacity:1;fill-rule:nonzero;stroke:#000000;stroke-width:5.73883152;stroke-linecap:round;stroke-linejoin:round;stroke-miterlimit:10;stroke-dasharray:none;stroke-opacity:1"
         inkscape:connector-curvature="0" />
      <path
         id="path4303"
         d="m 74.666417,489.80733 c 0,0.45792 -4.502399,0.45792 -4.502399,0 0,-0.45867 4.502399,-0.45867 4.502399,0"
         style="fill:#000000;fill-opacity:1;fill-rule:nonzero;stroke:#000000;stroke-width:5.73883152;stroke-linecap:round;stroke-linejoin:round;stroke-miterlimit:10;stroke-dasharray:none;stroke-opacity:1"
         inkscape:connector-curvature="0" />
    </g>
  </g>
</svg>
